<?xml version="1.0" encoding="UTF-8" standalone="no"?> <svg xmlns:inkscape="http://www.inkscape.org/namespaces/inkscape" xmlns:sodipodi="http://sodipodi.sourceforge.net/DTD/sodipodi-0.dtd" xmlns="http://www.w3.org/2000/svg" xmlns:svg="http://www.w3.org/2000/svg" width="248.34044mm" height="39.9967mm" viewBox="0 0 248.34044 39.9967" version="1.1" id="svg1"><defs id="defs1"></defs><g id="layer1" transform="translate(-117.73958,-198.70208)"><path style="fill:#ffffff;stroke-width:0.264583" d="m 133.84725,238.1064 c -4.45776,-0.91334 -7.46636,-2.46016 -10.23999,-5.26474 -2.4652,-2.4927 -3.6127,-4.30513 -4.66683,-7.37106 -2.95249,-8.58731 -0.3512,-17.55463 6.59984,-22.75135 1.82785,-1.36653 5.27824,-2.9807 7.60259,-3.55665 2.47797,-0.61403 7.78386,-0.61403 10.26183,0 2.31338,0.57324 5.75964,2.18257 7.62545,3.56092 1.40142,1.03529 3.6478,3.35999 3.6478,3.77498 0,0.11264 -0.61156,0.65372 -1.35903,1.20242 l -1.35903,0.99762 -0.95607,-1.07088 c -4.6256,-5.18104 -12.26076,-6.90567 -19.14235,-4.32389 -4.84469,1.81759 -8.71819,6.34587 -9.87463,11.54386 -0.58281,2.61962 -0.41177,6.64278 0.38912,9.15314 0.75769,2.37496 2.87855,5.48124 4.88009,7.14753 6.84059,5.69485 17.75902,5.04331 23.55727,-1.40574 l 1.19353,-1.32749 1.33555,0.99708 c 0.73455,0.5484 1.33555,1.13789 1.33555,1.30999 0,0.17211 -0.96711,1.22271 -2.14914,2.33468 -2.82969,2.66196 -5.77819,4.13444 -10.12054,5.05417 -3.70538,0.78482 -4.71075,0.78428 -8.56101,-0.005 z m 1.77352,-5.70884 c -3.2223,-0.4747 -5.76274,-1.74706 -7.98329,-3.99836 -1.59246,-1.6145 -3.13299,-4.40268 -3.62985,-6.56959 -0.35117,-1.53152 -0.35136,-5.34849 -3.4e-4,-6.87181 0.76703,-3.32874 3.51134,-6.92592 6.63255,-8.69379 4.13831,-2.34396 10.26645,-2.48012 14.64539,-0.32541 1.52426,0.75003 4.63021,3.2507 4.63021,3.72788 0,0.12647 -0.40601,0.53963 -0.90224,0.91813 l -0.90225,0.68818 -1.17128,-1.13835 c -6.48922,-6.3068 -17.92615,-3.37823 -20.20307,5.17324 -0.46733,1.75517 -0.46371,4.68762 0.008,6.45949 0.7909,2.97101 3.19412,5.78659 6.20305,7.26744 1.71798,0.8455 1.82829,0.86338 5.33059,0.86408 3.49312,7.9e-4 3.61621,-0.019 5.29166,-0.84816 0.94345,-0.46688 2.32989,-1.38961 3.08097,-2.05052 0.75109,-0.6609 1.46546,-1.19737 1.5875,-1.19213 0.12204,0.005 0.57715,0.29979 1.01135,0.65457 l 0.78945,0.64505 -1.18633,1.21462 c -3.27861,3.3568 -8.07742,4.83482 -13.23204,4.07544 z m 135.73842,-10.83253 v -10.84792 h 1.98438 1.98437 v 0.79751 0.7975 l 0.99219,-0.63755 c 1.48691,-0.95545 2.8697,-1.30522 4.55564,-1.15235 2.6674,0.24187 4.95027,1.93818 6.13748,4.56052 0.92591,2.04516 0.87047,5.30632 -0.12464,7.33278 -2.09167,4.25947 -7.12751,5.70975 -10.7844,3.10581 l -0.77627,-0.55275 v 3.72218 3.72219 h -1.98437 -1.98438 z m 9.96066,1.03956 c 1.56449,-0.75736 2.29837,-2.0186 2.29837,-3.94998 0,-1.11238 -0.15932,-1.77242 -0.59993,-2.48533 -2.05507,-3.32517 -7.35711,-2.22661 -7.87461,1.63159 -0.2079,1.55002 0.0986,2.82799 0.90928,3.79144 1.33744,1.58946 3.29671,1.96603 5.26689,1.01228 z m -86.16237,4.0049 c -2.28514,-0.69511 -4.52501,-2.96135 -5.19093,-5.25203 -0.61291,-2.10834 -0.3933,-4.87413 0.5382,-6.77805 1.91526,-3.91465 6.81977,-5.31009 10.31844,-2.93583 0.53575,0.36357 1.02833,0.66103 1.09463,0.66103 0.0663,0 0.12054,-0.35718 0.12054,-0.79375 v -0.79375 h 1.98437 1.98438 v 7.9375 7.9375 h -1.96761 -1.96761 l -0.0829,-0.79948 -0.0829,-0.79949 -0.92604,0.62413 c -1.72319,1.16138 -3.99418,1.54838 -5.82255,0.99222 z m 4.74809,-3.9779 c 1.46455,-0.74716 2.22098,-2.10166 2.22098,-3.97698 0,-2.82339 -1.96005,-4.69045 -4.65247,-4.43175 -2.11278,0.20301 -3.59841,1.65347 -3.83395,3.74318 -0.42225,3.74621 3.02938,6.31646 6.26544,4.66555 z m 45.58361,3.85359 c -2.17056,-0.71082 -3.72778,-2.01231 -4.77891,-3.99411 -0.61691,-1.16314 -0.70173,-1.62649 -0.7022,-3.83646 -5.3e-4,-2.10152 0.0972,-2.69666 0.59566,-3.63066 0.93462,-1.7512 2.08965,-2.90034 3.71991,-3.70092 2.03328,-0.99849 5.29865,-1.055 7.32409,-0.12676 2.98314,1.36715 4.89479,4.49175 4.89479,8.00053 v 0.78073 h -6.46852 -6.46853 l 0.27435,0.787 c 0.87211,2.50174 4.55543,3.40678 7.35616,1.8075 l 0.94092,-0.53728 1.52135,0.67662 c 0.83675,0.37214 1.52136,0.7899 1.52136,0.92836 0,0.43428 -1.90536,1.94737 -3.13989,2.49346 -1.53496,0.67899 -5.02313,0.86529 -6.59054,0.35199 z m 6.59565,-10.54255 c -0.70447,-1.11991 -2.46386,-2.05052 -3.87668,-2.05052 -1.41282,0 -3.17221,0.93061 -3.87668,2.05052 l -0.54091,0.8599 h 4.41759 4.41759 z m 54.19765,10.66686 c -2.28514,-0.69511 -4.52501,-2.96135 -5.19093,-5.25203 -0.61291,-2.10834 -0.3933,-4.87413 0.5382,-6.77805 1.91526,-3.91465 6.81976,-5.31009 10.31844,-2.93583 0.53574,0.36357 1.02833,0.66103 1.09463,0.66103 0.0663,0 0.12054,-0.35718 0.12054,-0.79375 v -0.79375 h 1.98437 1.98438 v 7.9375 7.9375 h -1.96761 -1.96761 l -0.0829,-0.79948 -0.0829,-0.79949 -0.92605,0.62413 c -1.72318,1.16138 -3.99417,1.54838 -5.82254,0.99222 z m 4.74809,-3.9779 c 1.46455,-0.74716 2.22098,-2.10166 2.22098,-3.97698 0,-2.82339 -1.96005,-4.69045 -4.65247,-4.43175 -2.11278,0.20301 -3.59841,1.65347 -3.83395,3.74318 -0.42225,3.74621 3.02937,6.31646 6.26544,4.66555 z m 16.8792,3.95408 c -3.74016,-0.94443 -6.27975,-4.13677 -6.27975,-7.89385 0,-3.24774 1.75715,-5.92519 4.81529,-7.33727 1.47034,-0.67892 1.96355,-0.76973 4.18055,-0.76973 2.1969,0 2.69727,0.0902 3.97205,0.71632 1.31765,0.64713 3.43679,2.44539 3.15361,2.67609 -0.0628,0.0512 -0.78896,0.47277 -1.61366,0.93689 l -1.49945,0.84385 -0.97456,-0.66135 c -1.18273,-0.80262 -2.41615,-1.06082 -4.01845,-0.8412 -2.61708,0.35871 -4.2004,2.2767 -3.98853,4.83159 0.14531,1.75229 0.76038,2.66891 2.32856,3.47021 1.81933,0.92963 4.70416,0.64981 6.07311,-0.58907 0.45906,-0.41545 0.5728,-0.38414 1.96686,0.54147 0.81379,0.54033 1.47962,1.06126 1.47962,1.15763 0,0.42461 -1.83304,1.88945 -3.02103,2.4142 -1.4778,0.65276 -4.93568,0.91796 -6.57422,0.50422 z m 18.91483,-0.10049 c -2.17057,-0.71082 -3.72779,-2.01231 -4.77891,-3.99411 -0.61692,-1.16314 -0.70173,-1.62649 -0.70221,-3.83646 -5.2e-4,-2.10152 0.0972,-2.69666 0.59567,-3.63066 0.93461,-1.7512 2.08965,-2.90034 3.71991,-3.70092 2.03327,-0.99849 5.29865,-1.055 7.32409,-0.12676 2.98313,1.36715 4.89479,4.49175 4.89479,8.00053 v 0.78073 h -6.46853 -6.46853 l 0.27435,0.787 c 0.87212,2.50174 4.55544,3.40678 7.35617,1.8075 l 0.94092,-0.53728 1.52135,0.67662 c 0.83674,0.37214 1.52135,0.7899 1.52135,0.92836 0,0.43428 -1.90535,1.94737 -3.13988,2.49346 -1.53497,0.67899 -5.02314,0.86529 -6.59054,0.35199 z m 6.59565,-10.54255 c -0.70447,-1.11991 -2.46386,-2.05052 -3.87668,-2.05052 -1.41283,0 -3.17222,0.93061 -3.87669,2.05052 l -0.5409,0.8599 h 4.41759 4.41758 z m 8.93526,10.14067 c -0.46625,-0.46624 -0.7734,-1.05226 -0.7734,-1.47556 0,-0.99845 1.31943,-2.24896 2.37292,-2.24896 1.16096,0 2.12499,1.02027 2.12499,2.24896 0,2.08307 -2.23253,2.96755 -3.72451,1.47556 z m -201.59215,-7.42869 v -7.9375 h 1.98437 1.98438 v 0.93851 0.93851 l 0.99219,-0.77351 c 2.53828,-1.97886 6.04166,-1.75347 7.80704,0.50226 l 0.68736,0.87828 1.14776,-1.05797 c 2.60975,-2.40558 6.87235,-2.15224 8.6377,0.51338 l 0.70399,1.063 0.0793,6.43627 0.0793,6.43627 h -1.99752 -1.99752 v -5.03558 c 0,-5.41749 -0.21031,-6.5398 -1.33866,-7.14368 -0.89006,-0.47634 -2.57287,-0.14539 -3.42839,0.67425 -1.05815,1.01377 -1.31836,2.44606 -1.31836,7.25655 v 4.24846 h -1.98438 -1.98437 l -0.002,-4.69635 c -8e-4,-2.583 -0.12397,-5.13742 -0.2737,-5.67651 -0.74078,-2.66723 -4.10608,-2.74779 -5.29606,-0.12678 -0.43238,0.95235 -0.50337,1.76279 -0.50837,5.80329 l -0.006,4.69635 h -1.98438 -1.98437 z m 50.00625,0 v -7.9375 h 1.71979 1.71979 v 0.96173 0.96172 l 0.57359,-0.7292 c 0.93665,-1.19076 3.16484,-1.84818 4.1494,-1.22426 0.29268,0.18547 0.25174,0.51614 -0.22618,1.82689 -0.5677,1.55696 -0.60615,1.59679 -1.4157,1.46623 -0.65042,-0.1049 -0.96698,0.01 -1.44956,0.52473 -0.90891,0.97004 -1.08907,2.18488 -1.09607,7.39081 l -0.006,4.69635 h -1.98438 -1.98437 z m 12.17083,-3.04271 v -10.9802 h 1.97959 1.97958 l 0.0709,6.19473 0.0709,6.19473 2.77813,-3.13333 2.77812,-3.13332 2.60918,-0.0187 2.60917,-0.0187 -2.72769,2.97657 c -1.50022,1.6371 -3.0593,3.33735 -3.46461,3.77831 l -0.73693,0.80175 3.75533,4.09304 3.75533,4.09304 -2.37072,0.0784 -2.37072,0.0784 -1.19148,-1.26899 c -0.65531,-0.69794 -2.17036,-2.34055 -3.36678,-3.65024 l -2.1753,-2.38125 -0.007,3.63802 -0.007,3.63802 h -1.98437 -1.98438 z m 38.1,4.7625 v -6.2177 h -0.92604 -0.92604 v -1.7198 -1.71979 h 0.92604 0.92604 v -3.04271 -3.0427 h 1.98438 1.98437 v 3.0427 3.04271 h 1.19063 1.19062 v 1.71979 1.7198 h -1.19062 -1.19063 v 6.2177 6.21771 h -1.98437 -1.98438 z m 31.22083,-4.7625 v -10.9802 h 1.98438 1.98437 v 10.9802 10.98021 h -1.98437 -1.98438 z" id="path1"></path></g></svg> 